<svg xmlns:xlink="http://www.w3.org/1999/xlink" width="7.287ex" height="2.343ex" style="font-size: 15px; vertical-align: -0.505ex;" viewBox="0 -791.3 3137.6 1008.6" role="img" focusable="false" xmlns="http://www.w3.org/2000/svg">
<defs>
<path stroke-width="1" id="E1-MJMAIN-2212" d="M84 237T84 250T98 270H679Q694 262 694 250T679 230H98Q84 237 84 250Z"></path>
<path stroke-width="1" id="E1-MJMATHI-7A" d="M347 338Q337 338 294 349T231 360Q211 360 197 356T174 346T162 335T155 324L153 320Q150 317 138 317Q117 317 117 325Q117 330 120 339Q133 378 163 406T229 440Q241 442 246 442Q271 442 291 425T329 392T367 375Q389 375 411 408T434 441Q435 442 449 442H462Q468 436 468 434Q468 430 463 420T449 399T432 377T418 358L411 349Q368 298 275 214T160 106L148 94L163 93Q185 93 227 82T290 71Q328 71 360 90T402 140Q406 149 409 151T424 153Q443 153 443 143Q443 138 442 134Q425 72 376 31T278 -11Q252 -11 232 6T193 40T155 57Q111 57 76 -3Q70 -11 59 -11H54H41Q35 -5 35 -2Q35 13 93 84Q132 129 225 214T340 322Q352 338 347 338Z"></path>
<path stroke-width="1" id="E1-MJMAIN-2208" d="M84 250Q84 372 166 450T360 539Q361 539 377 539T419 540T469 540H568Q583 532 583 520Q583 511 570 501L466 500Q355 499 329 494Q280 482 242 458T183 409T147 354T129 306T124 272V270H568Q583 262 583 250T568 230H124V228Q124 207 134 177T167 112T231 48T328 7Q355 1 466 0H570Q583 -10 583 -20Q583 -32 568 -40H471Q464 -40 446 -40T417 -41Q262 -41 172 45Q84 127 84 250Z"></path>
<path stroke-width="1" id="E1-MJAMS-5A" d="M39 -1Q29 9 29 12Q29 23 60 77T219 337L410 648H364Q261 648 210 628Q168 612 142 588T109 545T97 509T88 490Q85 489 80 489Q72 489 61 503L70 588Q72 607 75 628T79 662T81 675Q84 677 88 681Q90 683 341 683H592Q604 673 604 666Q604 662 412 348L221 37Q221 35 301 35Q406 35 446 48Q504 68 543 111T597 212Q602 239 617 239Q624 239 629 234T635 223Q635 215 621 113T604 8L597 1Q595 -1 317 -1H39ZM148 637L166 648H112V632Q111 629 110 622T108 612Q108 608 110 608T116 612T129 623T148 637ZM552 646Q552 648 504 648Q452 648 450 643Q448 639 266 343T77 37Q77 35 128 35H179L366 339L552 646ZM572 35Q581 89 581 97L561 77Q542 59 526 48L508 37L539 35H572Z"></path>
</defs>
<g stroke="currentColor" fill="currentColor" stroke-width="0" transform="matrix(1 0 0 -1 0 0)">
 <use xlink:href="#E1-MJMAIN-2212" x="0" y="0"></use>
 <use xlink:href="#E1-MJMATHI-7A" x="778" y="0"></use>
 <use xlink:href="#E1-MJMAIN-2208" x="1524" y="0"></use>
 <use xlink:href="#E1-MJAMS-5A" x="2470" y="0"></use>
</g>
</svg>